<svg xmlns="http://www.w3.org/2000/svg" xmlns:xlink="http://www.w3.org/1999/xlink" version="1.1" x="0px" y="0px" viewBox="0 0 512 640" enable-background="new 0 0 512 512" xml:space="preserve"><g><path d="M152.471,349.779c-4.172,4.172-4.172,10.922,0,15.094c4.156,4.156,10.921,4.172,15.078,0   c4.172-4.172,4.172-10.922,0-15.094C163.392,345.623,156.627,345.623,152.471,349.779z"/><path d="M506.104,262.453l-40.124-20.062l-30.047-45.062h22.734c5.891,0,10.672-4.766,10.672-10.656v-63.999   c0-5.891-4.781-10.671-10.672-10.671H170.673c0-5.891-4.766-10.672-10.671-10.672H74.675c-5.891,0-10.672,4.781-10.672,10.672   H10.677c-5.891,0-10.672,4.781-10.672,10.671v63.999v170.653c0,0.734,0.078,1.453,0.219,2.156c1,4.859,5.297,8.516,10.453,8.516   h85.326h11.75c4.953,24.312,26.5,42.671,52.249,42.671c25.765,0,47.312-18.359,52.265-42.671H330.67h33.078   c4.953,24.312,26.499,42.671,52.248,42.671c25.766,0,47.312-18.359,52.266-42.671h33.077c5.891,0,10.656-4.781,10.656-10.672V272   C511.995,267.953,509.714,264.266,506.104,262.453z M438.746,240h-54.748v-42.671h26.296L438.746,240z M341.342,240v-42.671h21.328   V240H341.342z M21.348,346.67V197.329h63.999V346.67H21.348z M160.002,389.325c-17.641,0-32-14.358-32-31.999s14.359-32,32-32   c17.656,0,31.999,14.359,31.999,32S177.658,389.325,160.002,389.325z M319.998,186.673V346.67H212.267   c-4.953-24.328-26.5-42.671-52.265-42.671c-25.75,0-47.296,18.343-52.249,42.671h-1.078V186.673   c0-5.891-4.766-10.672-10.672-10.672H21.348v-42.671h426.648v42.671H330.67C324.779,176.001,319.998,180.783,319.998,186.673z    M415.996,389.325c-17.64,0-31.998-14.358-31.998-31.999s14.358-32,31.998-32c17.656,0,32,14.359,32,32   S433.652,389.325,415.996,389.325z M490.667,346.67h-22.405c-4.953-24.328-26.5-42.671-52.266-42.671   c-25.749,0-47.295,18.343-52.248,42.671h-22.406v-85.342h114.811l34.515,17.266V346.67z"/><path d="M408.466,349.779c-4.172,4.172-4.172,10.922,0,15.094c4.155,4.156,10.921,4.172,15.077,0   c4.172-4.172,4.172-10.922,0-15.094C419.387,345.623,412.621,345.623,408.466,349.779z"/><path d="M24.473,253.781c-4.172,4.172-4.172,10.922,0,15.094c4.156,4.172,10.922,4.172,15.078,0c4.172-4.172,4.172-10.922,0-15.094   C35.395,249.625,28.629,249.625,24.473,253.781z"/><path d="M287.999,176.001H138.861c-5.89,0-10.656,4.781-10.656,10.672v63.999c0,5.891,4.766,10.656,10.656,10.656h149.138   c5.906,0,10.672-4.766,10.672-10.656v-63.999C298.671,180.783,293.905,176.001,287.999,176.001z M149.533,197.329h53.233V240   h-53.233V197.329z M277.344,240H224.11v-42.671h53.234V240z"/></g><text x="0" y="527" fill="#000000" font-size="5px" font-weight="bold" font-family="'Helvetica Neue', Helvetica, Arial-Unicode, Arial, Sans-serif">Created by lastspark</text><text x="0" y="532" fill="#000000" font-size="5px" font-weight="bold" font-family="'Helvetica Neue', Helvetica, Arial-Unicode, Arial, Sans-serif">from the Noun Project</text></svg>